<mxfile host="Electron" modified="2024-07-01T19:13:26.349Z" agent="Mozilla/5.0 (Macintosh; Intel Mac OS X 10_15_7) AppleWebKit/537.36 (KHTML, like Gecko) draw.io/24.6.4 Chrome/124.0.6367.207 Electron/30.0.6 Safari/537.36" etag="NaSQwr3J37dJhp7S0LkZ" version="24.6.4" type="device">
  <diagram name="Page-1" id="JVnw2FR67qBZjyqMYff8">
    <mxGraphModel dx="2942" dy="1080" grid="1" gridSize="10" guides="1" tooltips="1" connect="1" arrows="1" fold="1" page="1" pageScale="1" pageWidth="850" pageHeight="1100" math="0" shadow="0">
      <root>
        <mxCell id="0" />
        <mxCell id="1" parent="0" />
        <mxCell id="Kxtw-JTkK95rBpkAI2wY-21" value="" style="shape=note;whiteSpace=wrap;html=1;backgroundOutline=1;darkOpacity=0.05;" parent="1" vertex="1">
          <mxGeometry x="380" y="320" width="1130" height="360" as="geometry" />
        </mxCell>
        <mxCell id="lyeMticQFeOR1YeAm27Y-25" value="Legend" style="shape=note;whiteSpace=wrap;html=1;backgroundOutline=1;darkOpacity=0.05;align=left;verticalAlign=top;" parent="1" vertex="1">
          <mxGeometry x="1320" y="10" width="190" height="260" as="geometry" />
        </mxCell>
        <mxCell id="lyeMticQFeOR1YeAm27Y-20" style="edgeStyle=orthogonalEdgeStyle;rounded=0;orthogonalLoop=1;jettySize=auto;html=1;entryX=0.5;entryY=0;entryDx=0;entryDy=0;" parent="1" source="lyeMticQFeOR1YeAm27Y-1" target="lyeMticQFeOR1YeAm27Y-7" edge="1">
          <mxGeometry relative="1" as="geometry">
            <Array as="points">
              <mxPoint x="210" y="365" />
              <mxPoint x="210" y="550" />
              <mxPoint x="278" y="550" />
            </Array>
          </mxGeometry>
        </mxCell>
        <mxCell id="Kxtw-JTkK95rBpkAI2wY-6" style="edgeStyle=orthogonalEdgeStyle;rounded=0;orthogonalLoop=1;jettySize=auto;html=1;entryX=0.5;entryY=0;entryDx=0;entryDy=0;" parent="1" source="lyeMticQFeOR1YeAm27Y-1" target="Kxtw-JTkK95rBpkAI2wY-5" edge="1">
          <mxGeometry relative="1" as="geometry" />
        </mxCell>
        <mxCell id="1AfIavt8rgIbqtOgnJtz-13" style="edgeStyle=orthogonalEdgeStyle;rounded=0;orthogonalLoop=1;jettySize=auto;html=1;exitX=0.5;exitY=0;exitDx=0;exitDy=0;entryX=0;entryY=1;entryDx=0;entryDy=0;strokeColor=#FF0000;strokeWidth=3;" parent="1" source="lyeMticQFeOR1YeAm27Y-1" target="lyeMticQFeOR1YeAm27Y-5" edge="1">
          <mxGeometry relative="1" as="geometry" />
        </mxCell>
        <mxCell id="aogqVHzotbbgdXP5pHiL-3" style="edgeStyle=orthogonalEdgeStyle;rounded=0;orthogonalLoop=1;jettySize=auto;html=1;entryX=0.25;entryY=0;entryDx=0;entryDy=0;strokeWidth=3;strokeColor=#0000FF;exitX=1;exitY=0;exitDx=0;exitDy=0;" edge="1" parent="1" source="lyeMticQFeOR1YeAm27Y-1" target="lyeMticQFeOR1YeAm27Y-2">
          <mxGeometry relative="1" as="geometry">
            <Array as="points">
              <mxPoint x="338" y="310" />
              <mxPoint x="443" y="310" />
            </Array>
          </mxGeometry>
        </mxCell>
        <mxCell id="lyeMticQFeOR1YeAm27Y-1" value="cdrhook" style="rounded=1;whiteSpace=wrap;html=1;fontSize=24;" parent="1" vertex="1">
          <mxGeometry x="227.5" y="340" width="110" height="50" as="geometry" />
        </mxCell>
        <mxCell id="lyeMticQFeOR1YeAm27Y-17" style="edgeStyle=orthogonalEdgeStyle;rounded=0;orthogonalLoop=1;jettySize=auto;html=1;entryX=0;entryY=0.5;entryDx=0;entryDy=0;" parent="1" source="lyeMticQFeOR1YeAm27Y-2" target="lyeMticQFeOR1YeAm27Y-6" edge="1">
          <mxGeometry relative="1" as="geometry">
            <Array as="points">
              <mxPoint x="390" y="365" />
              <mxPoint x="390" y="620" />
            </Array>
          </mxGeometry>
        </mxCell>
        <mxCell id="Kxtw-JTkK95rBpkAI2wY-3" style="edgeStyle=orthogonalEdgeStyle;rounded=0;orthogonalLoop=1;jettySize=auto;html=1;entryX=0.25;entryY=0;entryDx=0;entryDy=0;" parent="1" source="lyeMticQFeOR1YeAm27Y-2" target="Kxtw-JTkK95rBpkAI2wY-1" edge="1">
          <mxGeometry relative="1" as="geometry" />
        </mxCell>
        <mxCell id="1AfIavt8rgIbqtOgnJtz-14" style="edgeStyle=orthogonalEdgeStyle;rounded=0;orthogonalLoop=1;jettySize=auto;html=1;entryX=0.25;entryY=1;entryDx=0;entryDy=0;startArrow=classic;startFill=1;strokeWidth=3;strokeColor=#FF0000;" parent="1" source="lyeMticQFeOR1YeAm27Y-2" target="lyeMticQFeOR1YeAm27Y-5" edge="1">
          <mxGeometry relative="1" as="geometry" />
        </mxCell>
        <mxCell id="lyeMticQFeOR1YeAm27Y-2" value="Dowloader" style="rounded=1;whiteSpace=wrap;html=1;fontSize=24;" parent="1" vertex="1">
          <mxGeometry x="410" y="340" width="130" height="50" as="geometry" />
        </mxCell>
        <mxCell id="lyeMticQFeOR1YeAm27Y-18" style="edgeStyle=orthogonalEdgeStyle;rounded=0;orthogonalLoop=1;jettySize=auto;html=1;entryX=0.25;entryY=0;entryDx=0;entryDy=0;exitX=0.25;exitY=1;exitDx=0;exitDy=0;" parent="1" source="lyeMticQFeOR1YeAm27Y-3" target="lyeMticQFeOR1YeAm27Y-6" edge="1">
          <mxGeometry relative="1" as="geometry">
            <Array as="points">
              <mxPoint x="583" y="430" />
              <mxPoint x="420" y="430" />
              <mxPoint x="420" y="570" />
              <mxPoint x="559" y="570" />
            </Array>
          </mxGeometry>
        </mxCell>
        <mxCell id="1AfIavt8rgIbqtOgnJtz-15" style="edgeStyle=orthogonalEdgeStyle;rounded=0;orthogonalLoop=1;jettySize=auto;html=1;entryX=0.5;entryY=1;entryDx=0;entryDy=0;strokeColor=#FF0000;strokeWidth=3;startArrow=classic;startFill=1;" parent="1" source="lyeMticQFeOR1YeAm27Y-3" target="lyeMticQFeOR1YeAm27Y-5" edge="1">
          <mxGeometry relative="1" as="geometry">
            <Array as="points">
              <mxPoint x="610" y="280" />
              <mxPoint x="473" y="280" />
            </Array>
          </mxGeometry>
        </mxCell>
        <mxCell id="lyeMticQFeOR1YeAm27Y-3" value="Pipeline" style="rounded=1;whiteSpace=wrap;html=1;fontSize=24;" parent="1" vertex="1">
          <mxGeometry x="555" y="340" width="110" height="50" as="geometry" />
        </mxCell>
        <mxCell id="lyeMticQFeOR1YeAm27Y-14" style="edgeStyle=orthogonalEdgeStyle;rounded=0;orthogonalLoop=1;jettySize=auto;html=1;entryX=1;entryY=0.5;entryDx=0;entryDy=0;" parent="1" source="lyeMticQFeOR1YeAm27Y-4" target="lyeMticQFeOR1YeAm27Y-6" edge="1">
          <mxGeometry relative="1" as="geometry">
            <Array as="points">
              <mxPoint x="820" y="365" />
              <mxPoint x="820" y="620" />
            </Array>
          </mxGeometry>
        </mxCell>
        <mxCell id="Kxtw-JTkK95rBpkAI2wY-4" style="edgeStyle=orthogonalEdgeStyle;rounded=0;orthogonalLoop=1;jettySize=auto;html=1;entryX=0.75;entryY=0;entryDx=0;entryDy=0;" parent="1" source="lyeMticQFeOR1YeAm27Y-4" target="Kxtw-JTkK95rBpkAI2wY-1" edge="1">
          <mxGeometry relative="1" as="geometry" />
        </mxCell>
        <mxCell id="1AfIavt8rgIbqtOgnJtz-16" style="edgeStyle=orthogonalEdgeStyle;rounded=0;orthogonalLoop=1;jettySize=auto;html=1;entryX=0.75;entryY=1;entryDx=0;entryDy=0;startArrow=classic;startFill=1;strokeColor=#FF0000;strokeWidth=3;" parent="1" source="lyeMticQFeOR1YeAm27Y-4" target="lyeMticQFeOR1YeAm27Y-5" edge="1">
          <mxGeometry relative="1" as="geometry">
            <Array as="points">
              <mxPoint x="740" y="270" />
              <mxPoint x="504" y="270" />
            </Array>
          </mxGeometry>
        </mxCell>
        <mxCell id="1AfIavt8rgIbqtOgnJtz-17" style="edgeStyle=orthogonalEdgeStyle;rounded=0;orthogonalLoop=1;jettySize=auto;html=1;entryX=0.88;entryY=0.25;entryDx=0;entryDy=0;exitX=0.75;exitY=0;exitDx=0;exitDy=0;entryPerimeter=0;startArrow=none;startFill=0;strokeColor=#0000FF;strokeWidth=3;endArrow=classic;endFill=1;" parent="1" source="lyeMticQFeOR1YeAm27Y-4" target="aogqVHzotbbgdXP5pHiL-1" edge="1">
          <mxGeometry relative="1" as="geometry">
            <Array as="points">
              <mxPoint x="768" y="140" />
              <mxPoint x="-138" y="140" />
            </Array>
          </mxGeometry>
        </mxCell>
        <mxCell id="lyeMticQFeOR1YeAm27Y-4" value="Uploader" style="rounded=1;whiteSpace=wrap;html=1;fontSize=24;" parent="1" vertex="1">
          <mxGeometry x="685" y="340" width="110" height="50" as="geometry" />
        </mxCell>
        <mxCell id="lyeMticQFeOR1YeAm27Y-5" value="RabbitMQ" style="rounded=1;whiteSpace=wrap;html=1;fontSize=24;" parent="1" vertex="1">
          <mxGeometry x="410" y="200" width="125" height="50" as="geometry" />
        </mxCell>
        <mxCell id="lyeMticQFeOR1YeAm27Y-6" value="File System" style="rounded=0;whiteSpace=wrap;html=1;fontSize=24;" parent="1" vertex="1">
          <mxGeometry x="520" y="590" width="155" height="60" as="geometry" />
        </mxCell>
        <mxCell id="lyeMticQFeOR1YeAm27Y-7" value="File System" style="rounded=0;whiteSpace=wrap;html=1;fontSize=24;" parent="1" vertex="1">
          <mxGeometry x="200" y="590" width="155" height="60" as="geometry" />
        </mxCell>
        <mxCell id="lyeMticQFeOR1YeAm27Y-9" value="Container" style="rounded=1;whiteSpace=wrap;html=1;" parent="1" vertex="1">
          <mxGeometry x="1370" y="40" width="70" height="30" as="geometry" />
        </mxCell>
        <mxCell id="lyeMticQFeOR1YeAm27Y-10" value="physical system" style="rounded=0;whiteSpace=wrap;html=1;" parent="1" vertex="1">
          <mxGeometry x="1345" y="80" width="120" height="30" as="geometry" />
        </mxCell>
        <mxCell id="1AfIavt8rgIbqtOgnJtz-10" style="edgeStyle=orthogonalEdgeStyle;rounded=0;orthogonalLoop=1;jettySize=auto;html=1;entryX=0;entryY=0.5;entryDx=0;entryDy=0;strokeWidth=3;strokeColor=#0000FF;startArrow=classic;startFill=1;exitX=0.75;exitY=0;exitDx=0;exitDy=0;" parent="1" source="lyeMticQFeOR1YeAm27Y-23" target="1AfIavt8rgIbqtOgnJtz-8" edge="1">
          <mxGeometry relative="1" as="geometry" />
        </mxCell>
        <mxCell id="1AfIavt8rgIbqtOgnJtz-11" style="edgeStyle=orthogonalEdgeStyle;rounded=0;orthogonalLoop=1;jettySize=auto;html=1;entryX=0.25;entryY=0;entryDx=0;entryDy=0;strokeWidth=3;strokeColor=#0000FF;exitX=0.75;exitY=1;exitDx=0;exitDy=0;startArrow=classic;startFill=1;" parent="1" source="lyeMticQFeOR1YeAm27Y-23" target="lyeMticQFeOR1YeAm27Y-1" edge="1">
          <mxGeometry relative="1" as="geometry" />
        </mxCell>
        <mxCell id="aogqVHzotbbgdXP5pHiL-2" style="edgeStyle=orthogonalEdgeStyle;rounded=0;orthogonalLoop=1;jettySize=auto;html=1;startArrow=classic;startFill=1;strokeColor=#0000FF;strokeWidth=3;entryX=0.875;entryY=0.5;entryDx=0;entryDy=0;entryPerimeter=0;" edge="1" parent="1" source="lyeMticQFeOR1YeAm27Y-23" target="aogqVHzotbbgdXP5pHiL-1">
          <mxGeometry relative="1" as="geometry" />
        </mxCell>
        <mxCell id="lyeMticQFeOR1YeAm27Y-23" value="&lt;span style=&quot;color: rgb(29, 28, 29); font-family: Slack-Lato, Slack-Fractions, appleLogo, sans-serif; font-variant-ligatures: common-ligatures; orphans: 2; text-align: left; widows: 2; background-color: rgb(248, 248, 248); text-decoration-thickness: initial; text-decoration-style: initial; text-decoration-color: initial;&quot;&gt;&lt;font style=&quot;font-size: 24px;&quot;&gt;traefik&lt;/font&gt;&lt;/span&gt;" style="rounded=1;whiteSpace=wrap;html=1;fontSize=24;" parent="1" vertex="1">
          <mxGeometry x="10" y="250" width="125" height="50" as="geometry" />
        </mxCell>
        <mxCell id="lyeMticQFeOR1YeAm27Y-27" value="" style="endArrow=classic;html=1;rounded=0;" parent="1" edge="1">
          <mxGeometry width="50" height="50" relative="1" as="geometry">
            <mxPoint x="1373.75" y="150" as="sourcePoint" />
            <mxPoint x="1436.25" y="150" as="targetPoint" />
          </mxGeometry>
        </mxCell>
        <mxCell id="lyeMticQFeOR1YeAm27Y-28" value="Requires" style="edgeLabel;html=1;align=center;verticalAlign=middle;resizable=0;points=[];" parent="lyeMticQFeOR1YeAm27Y-27" vertex="1" connectable="0">
          <mxGeometry x="-0.31" y="-3" relative="1" as="geometry">
            <mxPoint x="4" y="-13" as="offset" />
          </mxGeometry>
        </mxCell>
        <mxCell id="lyeMticQFeOR1YeAm27Y-29" value="This" style="text;html=1;align=center;verticalAlign=middle;whiteSpace=wrap;rounded=0;" parent="1" vertex="1">
          <mxGeometry x="1330" y="130" width="60" height="30" as="geometry" />
        </mxCell>
        <mxCell id="lyeMticQFeOR1YeAm27Y-30" value="This" style="text;html=1;align=center;verticalAlign=middle;whiteSpace=wrap;rounded=0;" parent="1" vertex="1">
          <mxGeometry x="1420" y="130" width="60" height="30" as="geometry" />
        </mxCell>
        <mxCell id="Kxtw-JTkK95rBpkAI2wY-1" value="Login Node" style="rounded=0;whiteSpace=wrap;html=1;verticalAlign=top;align=left;" parent="1" vertex="1">
          <mxGeometry x="430" y="460" width="350" height="90" as="geometry" />
        </mxCell>
        <mxCell id="Kxtw-JTkK95rBpkAI2wY-2" value="Compute Node" style="rounded=0;whiteSpace=wrap;html=1;verticalAlign=top;align=left;" parent="1" vertex="1">
          <mxGeometry x="515" y="480" width="190" height="50" as="geometry" />
        </mxCell>
        <mxCell id="lyeMticQFeOR1YeAm27Y-8" value="GPU" style="rounded=0;whiteSpace=wrap;html=1;fontSize=24;" parent="1" vertex="1">
          <mxGeometry x="617.5" y="485" width="70" height="40" as="geometry" />
        </mxCell>
        <mxCell id="lyeMticQFeOR1YeAm27Y-19" style="edgeStyle=orthogonalEdgeStyle;rounded=0;orthogonalLoop=1;jettySize=auto;html=1;entryX=0.5;entryY=0;entryDx=0;entryDy=0;" parent="1" source="lyeMticQFeOR1YeAm27Y-3" target="lyeMticQFeOR1YeAm27Y-8" edge="1">
          <mxGeometry relative="1" as="geometry" />
        </mxCell>
        <mxCell id="Kxtw-JTkK95rBpkAI2wY-5" value="Anything Cheep" style="rounded=0;whiteSpace=wrap;html=1;" parent="1" vertex="1">
          <mxGeometry x="222.5" y="460" width="120" height="30" as="geometry" />
        </mxCell>
        <mxCell id="Kxtw-JTkK95rBpkAI2wY-7" value="Or" style="text;html=1;align=center;verticalAlign=middle;whiteSpace=wrap;rounded=0;fontSize=48;" parent="1" vertex="1">
          <mxGeometry x="915" y="455" width="60" height="30" as="geometry" />
        </mxCell>
        <mxCell id="Kxtw-JTkK95rBpkAI2wY-8" style="edgeStyle=orthogonalEdgeStyle;rounded=0;orthogonalLoop=1;jettySize=auto;html=1;entryX=0;entryY=0.5;entryDx=0;entryDy=0;" parent="1" source="Kxtw-JTkK95rBpkAI2wY-10" target="Kxtw-JTkK95rBpkAI2wY-16" edge="1">
          <mxGeometry relative="1" as="geometry">
            <Array as="points">
              <mxPoint x="1050" y="365" />
              <mxPoint x="1050" y="620" />
            </Array>
          </mxGeometry>
        </mxCell>
        <mxCell id="Kxtw-JTkK95rBpkAI2wY-9" style="edgeStyle=orthogonalEdgeStyle;rounded=0;orthogonalLoop=1;jettySize=auto;html=1;entryX=0.25;entryY=0;entryDx=0;entryDy=0;" parent="1" source="Kxtw-JTkK95rBpkAI2wY-10" target="Kxtw-JTkK95rBpkAI2wY-17" edge="1">
          <mxGeometry relative="1" as="geometry" />
        </mxCell>
        <mxCell id="Kxtw-JTkK95rBpkAI2wY-10" value="Dowloader" style="rounded=1;whiteSpace=wrap;html=1;fontSize=24;" parent="1" vertex="1">
          <mxGeometry x="1070" y="340" width="130" height="50" as="geometry" />
        </mxCell>
        <mxCell id="Kxtw-JTkK95rBpkAI2wY-11" style="edgeStyle=orthogonalEdgeStyle;rounded=0;orthogonalLoop=1;jettySize=auto;html=1;entryX=0.25;entryY=0;entryDx=0;entryDy=0;exitX=0.25;exitY=1;exitDx=0;exitDy=0;" parent="1" source="Kxtw-JTkK95rBpkAI2wY-12" target="Kxtw-JTkK95rBpkAI2wY-16" edge="1">
          <mxGeometry relative="1" as="geometry">
            <Array as="points">
              <mxPoint x="1243" y="430" />
              <mxPoint x="1080" y="430" />
              <mxPoint x="1080" y="570" />
              <mxPoint x="1219" y="570" />
            </Array>
          </mxGeometry>
        </mxCell>
        <mxCell id="Kxtw-JTkK95rBpkAI2wY-12" value="Pipeline" style="rounded=1;whiteSpace=wrap;html=1;fontSize=24;" parent="1" vertex="1">
          <mxGeometry x="1215" y="340" width="110" height="50" as="geometry" />
        </mxCell>
        <mxCell id="Kxtw-JTkK95rBpkAI2wY-13" style="edgeStyle=orthogonalEdgeStyle;rounded=0;orthogonalLoop=1;jettySize=auto;html=1;entryX=1;entryY=0.5;entryDx=0;entryDy=0;" parent="1" source="Kxtw-JTkK95rBpkAI2wY-15" target="Kxtw-JTkK95rBpkAI2wY-16" edge="1">
          <mxGeometry relative="1" as="geometry">
            <Array as="points">
              <mxPoint x="1480" y="365" />
              <mxPoint x="1480" y="620" />
            </Array>
          </mxGeometry>
        </mxCell>
        <mxCell id="Kxtw-JTkK95rBpkAI2wY-14" style="edgeStyle=orthogonalEdgeStyle;rounded=0;orthogonalLoop=1;jettySize=auto;html=1;entryX=0.75;entryY=0;entryDx=0;entryDy=0;" parent="1" source="Kxtw-JTkK95rBpkAI2wY-15" target="Kxtw-JTkK95rBpkAI2wY-17" edge="1">
          <mxGeometry relative="1" as="geometry" />
        </mxCell>
        <mxCell id="Kxtw-JTkK95rBpkAI2wY-15" value="Uploader" style="rounded=1;whiteSpace=wrap;html=1;fontSize=24;" parent="1" vertex="1">
          <mxGeometry x="1345" y="340" width="110" height="50" as="geometry" />
        </mxCell>
        <mxCell id="Kxtw-JTkK95rBpkAI2wY-16" value="File System" style="rounded=0;whiteSpace=wrap;html=1;fontSize=24;" parent="1" vertex="1">
          <mxGeometry x="1180" y="590" width="155" height="60" as="geometry" />
        </mxCell>
        <mxCell id="Kxtw-JTkK95rBpkAI2wY-17" value="Cloud Instance/VM" style="rounded=0;whiteSpace=wrap;html=1;verticalAlign=top;align=left;" parent="1" vertex="1">
          <mxGeometry x="1090" y="460" width="350" height="90" as="geometry" />
        </mxCell>
        <mxCell id="Kxtw-JTkK95rBpkAI2wY-19" value="GPU" style="rounded=0;whiteSpace=wrap;html=1;fontSize=24;" parent="1" vertex="1">
          <mxGeometry x="1277.5" y="485" width="70" height="40" as="geometry" />
        </mxCell>
        <mxCell id="Kxtw-JTkK95rBpkAI2wY-20" style="edgeStyle=orthogonalEdgeStyle;rounded=0;orthogonalLoop=1;jettySize=auto;html=1;entryX=0.5;entryY=0;entryDx=0;entryDy=0;" parent="1" source="Kxtw-JTkK95rBpkAI2wY-12" target="Kxtw-JTkK95rBpkAI2wY-19" edge="1">
          <mxGeometry relative="1" as="geometry" />
        </mxCell>
        <mxCell id="1AfIavt8rgIbqtOgnJtz-1" value="" style="endArrow=classic;html=1;rounded=0;strokeWidth=3;strokeColor=#0000FF;" parent="1" edge="1">
          <mxGeometry width="50" height="50" relative="1" as="geometry">
            <mxPoint x="1400" y="199" as="sourcePoint" />
            <mxPoint x="1480" y="199" as="targetPoint" />
          </mxGeometry>
        </mxCell>
        <mxCell id="1AfIavt8rgIbqtOgnJtz-2" value="" style="endArrow=classic;html=1;rounded=0;strokeWidth=3;strokeColor=#FF0000;" parent="1" edge="1">
          <mxGeometry width="50" height="50" relative="1" as="geometry">
            <mxPoint x="1400" y="229" as="sourcePoint" />
            <mxPoint x="1480" y="229" as="targetPoint" />
          </mxGeometry>
        </mxCell>
        <mxCell id="1AfIavt8rgIbqtOgnJtz-3" value="" style="endArrow=classic;html=1;rounded=0;strokeWidth=3;strokeColor=#0000FF;startArrow=classic;startFill=1;" parent="1" edge="1">
          <mxGeometry width="50" height="50" relative="1" as="geometry">
            <mxPoint x="1400" y="179" as="sourcePoint" />
            <mxPoint x="1480" y="179" as="targetPoint" />
          </mxGeometry>
        </mxCell>
        <mxCell id="1AfIavt8rgIbqtOgnJtz-4" value="" style="endArrow=classic;html=1;rounded=0;strokeWidth=3;strokeColor=#FF0000;startArrow=classic;startFill=1;" parent="1" edge="1">
          <mxGeometry width="50" height="50" relative="1" as="geometry">
            <mxPoint x="1400" y="249" as="sourcePoint" />
            <mxPoint x="1480" y="249" as="targetPoint" />
          </mxGeometry>
        </mxCell>
        <mxCell id="1AfIavt8rgIbqtOgnJtz-6" value="http Request" style="text;html=1;align=center;verticalAlign=middle;whiteSpace=wrap;rounded=0;" parent="1" vertex="1">
          <mxGeometry x="1335" y="170" width="60" height="30" as="geometry" />
        </mxCell>
        <mxCell id="1AfIavt8rgIbqtOgnJtz-7" value="RMQ Message" style="text;html=1;align=center;verticalAlign=middle;whiteSpace=wrap;rounded=0;" parent="1" vertex="1">
          <mxGeometry x="1330" y="220" width="60" height="30" as="geometry" />
        </mxCell>
        <mxCell id="1AfIavt8rgIbqtOgnJtz-12" style="edgeStyle=orthogonalEdgeStyle;rounded=0;orthogonalLoop=1;jettySize=auto;html=1;entryX=0;entryY=0.5;entryDx=0;entryDy=0;strokeWidth=3;strokeColor=#0000FF;startArrow=classic;startFill=1;endArrow=none;endFill=0;" parent="1" source="1AfIavt8rgIbqtOgnJtz-8" target="lyeMticQFeOR1YeAm27Y-5" edge="1">
          <mxGeometry relative="1" as="geometry" />
        </mxCell>
        <mxCell id="1AfIavt8rgIbqtOgnJtz-8" value="Monitor" style="rounded=1;whiteSpace=wrap;html=1;fontSize=24;" parent="1" vertex="1">
          <mxGeometry x="180" y="200" width="125" height="50" as="geometry" />
        </mxCell>
        <mxCell id="aogqVHzotbbgdXP5pHiL-1" value="The CDR" style="ellipse;shape=cloud;whiteSpace=wrap;html=1;fontSize=24;" vertex="1" parent="1">
          <mxGeometry x="-340" y="95" width="230" height="360" as="geometry" />
        </mxCell>
      </root>
    </mxGraphModel>
  </diagram>
</mxfile>
